<?xml version="1.0" encoding="UTF-8"?>
<svg version="1.1" xmlns="http://www.w3.org/2000/svg" width="500" height="500">
<path d="M0 0 C0.76022461 0.2170459 1.52044922 0.4340918 2.30371094 0.65771484 C10.32020892 2.55850394 18.4911698 2.22644747 26.69042969 2.25927734 C34.13384535 2.39811826 38.6682066 2.49877301 44.03808594 7.86865234 C46.01594688 7.97870334 47.99568376 8.05515033 49.97558594 8.11865234 C60.86948775 8.83154571 76.75602792 11.14844248 85.03808594 18.86865234 C86.12435938 20.84406072 86.79066809 22.61464162 87.30761719 24.80615234 C88.8027243 29.02763126 91.09739793 31.39709611 95.06933594 33.38818359 C96.21402344 33.81486328 97.35871094 34.24154297 98.53808594 34.68115234 C105.59614517 37.47899203 112.25038349 40.86142816 118.03808594 45.86865234 C118.86230469 48.11083984 118.86230469 48.11083984 119.03808594 49.86865234 C112.89461134 55.83239763 107.5214936 59.80260451 98.78808594 60.30615234 C93.9239038 60.1476284 89.72316395 58.53577943 85.18261719 56.89208984 C79.74149107 55.12118917 73.78663691 53.86865234 68.03808594 53.86865234 C67.62300781 53.40201172 67.20792969 52.93537109 66.78027344 52.45458984 C62.94734084 48.96541802 57.0005056 49.1000884 52.03808594 48.86865234 C41.06626295 49.87201383 31.75469264 54.96379134 22.78417969 61.09130859 C20.03808594 62.86865234 20.03808594 62.86865234 18.03808594 62.86865234 C18.03808594 63.52865234 18.03808594 64.18865234 18.03808594 64.86865234 C17.37808594 64.86865234 16.71808594 64.86865234 16.03808594 64.86865234 C16.03808594 65.85865234 16.03808594 66.84865234 16.03808594 67.86865234 C15.37808594 67.86865234 14.71808594 67.86865234 14.03808594 67.86865234 C13.89306641 68.75810547 13.89306641 68.75810547 13.74511719 69.66552734 C12.89185187 72.32432092 11.80462223 73.28447044 9.72558594 75.11865234 C2.57445805 82.00708574 0.11042681 91.65162973 -2.96191406 100.86865234 C2.72419102 103.03971065 8.31105794 104.39354773 14.28808594 105.43115234 C15.02414062 105.56013916 15.76019531 105.68912598 16.51855469 105.82202148 C19.90402161 106.39777359 23.25810098 106.89204814 26.67480469 107.25537109 C39.28887513 108.64366524 45.43604375 114.97951134 53.51074219 124.27880859 C56.65283014 127.49859888 59.94961853 129.56525377 63.90917969 131.64990234 C66.03808594 132.86865234 66.03808594 132.86865234 67.55761719 134.40771484 C69.33801709 136.16462662 70.96890095 136.827331 73.28808594 137.74365234 C77.75551415 139.66347852 81.32783924 141.69948329 85.03808594 144.86865234 C85.97558594 147.68115234 85.97558594 147.68115234 86.03808594 149.86865234 C84.71808594 149.86865234 83.39808594 149.86865234 82.03808594 149.86865234 C81.37808594 150.52865234 80.71808594 151.18865234 80.03808594 151.86865234 C76.78027344 151.84521484 76.78027344 151.84521484 72.91308594 151.49365234 C71.63175781 151.38279297 70.35042969 151.27193359 69.03027344 151.15771484 C68.04285156 151.06232422 67.05542969 150.96693359 66.03808594 150.86865234 C65.70808594 149.87865234 65.37808594 148.88865234 65.03808594 147.86865234 C63.64589844 147.71396484 63.64589844 147.71396484 62.22558594 147.55615234 C58.83064829 146.82391089 58.06801944 146.54447378 56.03808594 143.86865234 C55.43996094 142.91990234 54.84183594 141.97115234 54.22558594 140.99365234 C50.54760881 135.7393993 45.97539147 132.26883969 40.03808594 129.86865234 C39.19246094 129.90990234 38.34683594 129.95115234 37.47558594 129.99365234 C36.67121094 129.95240234 35.86683594 129.91115234 35.03808594 129.86865234 C34.4 129.08490234 33.76191406 128.30115234 33.10449219 127.49365234 C29.19866489 123.43961125 23.87557316 123.41837483 18.53808594 122.74365234 C16.85005859 122.50618286 16.85005859 122.50618286 15.12792969 122.26391602 C4.85199284 120.86310053 -5.46778016 119.7946344 -15.79199219 118.81933594 C-16.96181641 118.70799316 -18.13164062 118.59665039 -19.33691406 118.48193359 C-20.37589844 118.3869458 -21.41488281 118.29195801 -22.48535156 118.1940918 C-24.96191406 117.86865234 -24.96191406 117.86865234 -26.96191406 116.86865234 C-26.96191406 117.52865234 -26.96191406 118.18865234 -26.96191406 118.86865234 C-27.69925781 119.41521484 -28.43660156 119.96177734 -29.19628906 120.52490234 C-32.6308576 123.43555364 -34.21212475 126.39376247 -36.21191406 130.36865234 C-36.59395996 131.11421387 -36.97600586 131.85977539 -37.36962891 132.62792969 C-38.58693268 135.03216687 -39.77802298 137.44780254 -40.96191406 139.86865234 C-41.54344238 141.04669434 -41.54344238 141.04669434 -42.13671875 142.24853516 C-47.36337259 152.95240571 -51.43089506 163.65519445 -54.49169922 175.1796875 C-56.29028515 181.68596622 -58.16540532 186.42451777 -64.06738281 190.22412109 C-64.75445312 190.49869141 -65.44152344 190.77326172 -66.14941406 191.05615234 C-66.92285156 191.36810547 -67.69628906 191.68005859 -68.49316406 192.00146484 C-71.7941619 193.16099256 -75.12488171 194.1576039 -78.50488281 195.06005859 C-81.0754364 195.8058648 -81.0754364 195.8058648 -83.57910156 197.43896484 C-88.38041941 199.46815922 -92.74380511 199.26702191 -97.89941406 199.18115234 C-98.86298828 199.184375 -99.8265625 199.18759766 -100.81933594 199.19091797 C-106.24671647 199.1501106 -110.83246673 198.65932172 -115.96191406 196.86865234 C-115.96191406 196.20865234 -115.96191406 195.54865234 -115.96191406 194.86865234 C-114.97191406 194.86865234 -113.98191406 194.86865234 -112.96191406 194.86865234 C-112.73503906 194.29115234 -112.50816406 193.71365234 -112.27441406 193.11865234 C-110.05142538 189.3078146 -107.10402414 187.2493557 -102.96191406 185.86865234 C-101.40439637 185.81003326 -99.84438455 185.80741042 -98.28613281 185.84130859 C-97.37541016 185.85355469 -96.4646875 185.86580078 -95.52636719 185.87841797 C-93.62003722 185.91336088 -91.71377717 185.95237297 -89.80761719 185.99560547 C-84.76511845 186.05601595 -80.68852865 185.88755807 -75.96191406 183.86865234 C-75.90003906 183.10552734 -75.83816406 182.34240234 -75.77441406 181.55615234 C-75.50628906 180.66927734 -75.23816406 179.78240234 -74.96191406 178.86865234 C-74.17945313 178.46646484 -73.39699219 178.06427734 -72.59082031 177.64990234 C-69.07786102 175.26965058 -68.27873457 172.5775908 -67.08691406 168.68115234 C-66.84424805 167.92374756 -66.60158203 167.16634277 -66.3515625 166.38598633 C-61.50260723 150.48588807 -57.8164644 133.49490962 -55.67578125 117.02075195 C-54.75613334 114.24828399 -53.39671062 113.38563753 -50.96191406 111.86865234 C-51.70054687 111.84287109 -52.43917969 111.81708984 -53.20019531 111.79052734 C-67.7880551 110.97494179 -77.89122348 104.87935092 -89.87988281 96.93505859 C-98.61709283 91.20473045 -107.15002071 86.05787996 -117.96191406 87.86865234 C-121.17899007 89.05054353 -124.50415693 90.41089521 -126.96191406 92.86865234 C-126.69741529 96.17944737 -126.31048177 99.46857621 -125.92285156 102.76708984 C-125.96191406 105.86865234 -125.96191406 105.86865234 -127.20800781 107.75146484 C-130.29538464 109.7180345 -133.50075299 109.5621229 -136.96191406 108.86865234 C-139.11737093 107.70833164 -141.07091352 106.37965271 -143.08691406 104.99365234 C-145.87618122 103.32009205 -147.79334643 103.3175971 -150.96191406 103.86865234 C-160.45385433 107.37654331 -166.90487442 115.43607012 -171.96191406 123.86865234 C-172.76940918 125.63232421 -173.56165167 127.40307613 -174.33691406 129.18115234 C-176.57975231 133.91850045 -179.09593742 135.60897489 -183.77441406 137.78662109 C-186.24714004 138.88873116 -186.24714004 138.88873116 -188.89941406 141.49365234 C-192.33111693 144.15497294 -194.96659897 144.84593852 -199.09082031 145.94287109 C-203.00455713 147.20485154 -206.51778593 149.0724313 -210.15527344 150.97412109 C-214.35971398 153.14126617 -218.62277574 154.99650558 -223.01171875 156.75854492 C-235.51869502 161.78700738 -250.99524957 168.41577396 -258.00097656 180.68896484 C-258.84771736 182.73311688 -259.4233338 184.72151237 -259.96191406 186.86865234 C-260.23777344 187.90763672 -260.51363281 188.94662109 -260.79785156 190.01708984 C-263.07084805 199.12992896 -264.42949494 204.69636358 -259.52441406 213.05615234 C-258.88632812 214.06033203 -258.24824219 215.06451172 -257.59082031 216.09912109 C-254.828576 220.79559883 -254.85765575 224.44722002 -254.96191406 229.86865234 C-262.2489511 229.27135423 -266.50055706 227.43823802 -271.39941406 221.94677734 C-275.07212796 217.06206786 -275.64546722 211.83969021 -274.96191406 205.86865234 C-274.63835937 204.64404297 -274.31480469 203.41943359 -273.98144531 202.15771484 C-272.84946917 197.80652378 -272.56251209 193.59788102 -272.39941406 189.11865234 C-272.22775539 184.91849343 -272.00319219 180.95154524 -270.96191406 176.86865234 C-270.73650602 173.60023566 -270.58259271 170.33301212 -270.43847656 167.06005859 C-269.8907403 163.39202148 -269.39638843 161.6805646 -266.96191406 158.86865234 C-264.11736047 157.29042582 -261.13112901 156.18905524 -258.08691406 155.05615234 C-244.27978968 149.55075523 -233.55214348 142.24898532 -222.96191406 131.86865234 C-224.04064968 130.55594623 -224.04064968 130.55594623 -226.62988281 130.84912109 C-238.25468463 131.53293297 -249.14619603 133.61343834 -259.19238281 139.81787109 C-260.96191406 140.86865234 -260.96191406 140.86865234 -263.96191406 141.86865234 C-264.99562133 143.69011885 -264.99562133 143.69011885 -265.96191406 145.86865234 C-267.06731726 147.4450771 -268.19410845 149.00662771 -269.33691406 150.55615234 C-271.64461773 153.7897865 -273.49180127 156.80558677 -274.96191406 160.49365234 C-278.89272898 169.88484615 -288.50996907 178.99043404 -297.10644531 184.15771484 C-298.96191406 184.86865234 -298.96191406 184.86865234 -301.96191406 184.86865234 C-300.39570823 176.28784378 -299.24452614 171.15126443 -292.96191406 164.86865234 C-292.46691406 163.83740234 -291.97191406 162.80615234 -291.46191406 161.74365234 C-289.96191406 158.86865234 -289.96191406 158.86865234 -287.61035156 157.64599609 C-284.08604995 155.28086743 -282.79894165 152.30184779 -281.08691406 148.55615234 C-280.39837865 147.11461869 -279.70957113 145.67321498 -279.02050781 144.23193359 C-278.67874512 143.50441895 -278.33698242 142.7769043 -277.98486328 142.02734375 C-276.42662097 138.73904339 -274.78780117 135.49254477 -273.14941406 132.24365234 C-272.33537109 130.61556641 -272.33537109 130.61556641 -271.50488281 128.95458984 C-270.99570312 127.93623047 -270.48652344 126.91787109 -269.96191406 125.86865234 C-269.15173828 124.21736328 -269.15173828 124.21736328 -268.32519531 122.53271484 C-266.96191406 119.86865234 -266.96191406 119.86865234 -265.96191406 118.86865234 C-264.28676428 118.68832407 -262.60503586 118.56846658 -260.92285156 118.47412109 C-245.64895608 117.50945401 -232.11583046 115.76258605 -217.91503906 109.70068359 C-215.96191406 108.86865234 -215.96191406 108.86865234 -212.96191406 107.86865234 C-212.30191406 104.56865234 -211.64191406 101.26865234 -210.96191406 97.86865234 C-210.30191406 97.86865234 -209.64191406 97.86865234 -208.96191406 97.86865234 C-208.94773437 97.17900391 -208.93355469 96.48935547 -208.91894531 95.77880859 C-208.48938705 87.3153498 -206.25306449 81.60455283 -200.64941406 75.24365234 C-199.06061259 73.83959523 -197.46828169 72.43948688 -195.86816406 71.04833984 C-195.13597656 70.41154297 -194.40378906 69.77474609 -193.64941406 69.11865234 C-192.95203125 68.52568359 -192.25464844 67.93271484 -191.53613281 67.32177734 C-191.01664062 66.84224609 -190.49714844 66.36271484 -189.96191406 65.86865234 C-189.96191406 65.53865234 -189.96191406 65.20865234 -189.96191406 64.86865234 C-200.7804689 65.3921308 -210.86574467 68.75013575 -221.18066406 71.82958984 C-242.21619036 77.93472822 -264.24248099 74.78176265 -284.94384766 68.98925781 C-290.30413128 67.49629604 -295.41931881 66.39745118 -300.96191406 65.86865234 C-300.96191406 64.87865234 -300.96191406 63.88865234 -300.96191406 62.86865234 C-289.84954825 61.10207111 -279.30206453 61.45684012 -268.27441406 63.36865234 C-244.02444125 67.52068078 -222.84871418 60.49758572 -199.96191406 52.86865234 C-198.22343777 52.67649008 -196.48007449 52.52696728 -194.73535156 52.40380859 C-193.18654297 52.28682617 -193.18654297 52.28682617 -191.60644531 52.16748047 C-189.45035326 52.01163391 -187.29410443 51.85793921 -185.13769531 51.70654297 C-177.35612048 51.11352333 -169.7946871 50.23640507 -162.52441406 47.24365234 C-158.96191406 45.86865234 -158.96191406 45.86865234 -156.96191406 45.86865234 C-156.96191406 45.20865234 -156.96191406 44.54865234 -156.96191406 43.86865234 C-150.13885215 40.21344061 -144.02244733 37.9974994 -136.27441406 37.61865234 C-128.67625029 37.04480501 -121.50629353 34.6119587 -114.24316406 32.43896484 C-113.37320801 32.18276367 -112.50325195 31.9265625 -111.60693359 31.66259766 C-109.84533118 31.13382425 -108.0907594 30.58102993 -106.34423828 30.00439453 C-97.69015041 27.31215224 -89.49708914 27.69088098 -80.52050781 27.98583984 C-72.19251914 28.15075051 -64.99459435 26.9883128 -56.96191406 24.86865234 C-54.19811409 24.27544098 -51.42925081 23.76043507 -48.64941406 23.24365234 C-47.37453125 23.00388672 -46.09964844 22.76412109 -44.78613281 22.51708984 C-37.27494706 21.24348736 -30.31124325 20.79450107 -22.71191406 20.93115234 C-14.92251136 21.00034324 -7.57991151 20.65544097 0.03808594 18.86865234 C0.86179687 18.67787109 1.68550781 18.48708984 2.53417969 18.29052734 C4.37561846 17.84373111 6.20837182 17.36126768 8.03808594 16.86865234 C7.54308594 16.10552734 7.04808594 15.34240234 6.53808594 14.55615234 C5.03808594 11.86865234 5.03808594 11.86865234 5.03808594 8.86865234 C4.48121094 9.09552734 3.92433594 9.32240234 3.35058594 9.55615234 C1.03808594 9.86865234 1.03808594 9.86865234 -1.64941406 8.68115234 C-3.96191406 6.86865234 -3.96191406 6.86865234 -4.96191406 4.86865234 C-4.96191406 2.86865234 -4.96191406 2.86865234 -3.72851562 1.19433594 C-1.96191406 -0.13134766 -1.96191406 -0.13134766 0 0 Z M59.03808594 15.86865234 C60.03808594 17.86865234 60.03808594 17.86865234 60.03808594 17.86865234 Z M69.03808594 21.86865234 C70.02808594 23.35365234 70.02808594 23.35365234 71.03808594 24.86865234 C71.03808594 23.87865234 71.03808594 22.88865234 71.03808594 21.86865234 C70.37808594 21.86865234 69.71808594 21.86865234 69.03808594 21.86865234 Z M86.03808594 35.86865234 C87.03808594 37.86865234 87.03808594 37.86865234 87.03808594 37.86865234 Z M-21.96191406 41.86865234 C-21.30191406 42.52865234 -20.64191406 43.18865234 -19.96191406 43.86865234 C-19.96191406 43.20865234 -19.96191406 42.54865234 -19.96191406 41.86865234 C-20.62191406 41.86865234 -21.28191406 41.86865234 -21.96191406 41.86865234 Z M-14.96191406 45.86865234 C-13.96191406 47.86865234 -13.96191406 47.86865234 -13.96191406 47.86865234 Z M-11.96191406 58.86865234 C-11.30191406 59.52865234 -10.64191406 60.18865234 -9.96191406 60.86865234 C-9.96191406 60.20865234 -9.96191406 59.54865234 -9.96191406 58.86865234 C-10.62191406 58.86865234 -11.28191406 58.86865234 -11.96191406 58.86865234 Z M-169.96191406 73.86865234 C-170.29191406 74.85865234 -170.62191406 75.84865234 -170.96191406 76.86865234 C-170.30191406 76.86865234 -169.64191406 76.86865234 -168.96191406 76.86865234 C-169.29191406 75.87865234 -169.62191406 74.88865234 -169.96191406 73.86865234 Z M-168.96191406 76.86865234 C-167.96191406 78.86865234 -167.96191406 78.86865234 -167.96191406 78.86865234 Z M-170.96191406 79.86865234 C-169.96191406 81.86865234 -169.96191406 81.86865234 -169.96191406 81.86865234 Z M-22.96191406 100.86865234 C-23.29191406 101.52865234 -23.62191406 102.18865234 -23.96191406 102.86865234 C-22.97191406 102.53865234 -21.98191406 102.20865234 -20.96191406 101.86865234 C-21.62191406 101.53865234 -22.28191406 101.20865234 -22.96191406 100.86865234 Z M-253.96191406 126.86865234 C-249.96191406 127.86865234 -249.96191406 127.86865234 -249.96191406 127.86865234 Z M-257.96191406 127.86865234 C-253.96191406 128.86865234 -253.96191406 128.86865234 -253.96191406 128.86865234 Z M65.03808594 139.86865234 C66.03808594 141.86865234 66.03808594 141.86865234 66.03808594 141.86865234 Z M-266.96191406 194.86865234 C-265.96191406 197.86865234 -265.96191406 197.86865234 -265.96191406 197.86865234 Z M-267.96191406 211.86865234 C-266.96191406 214.86865234 -266.96191406 214.86865234 -266.96191406 214.86865234 Z M-266.96191406 215.86865234 C-265.96191406 217.86865234 -265.96191406 217.86865234 -265.96191406 217.86865234 Z " fill="#FDFDFD" transform="translate(330.9619140625,152.13134765625)"/>
<path d="M0 0 C9.45651021 2.43776847 14.91958901 9.21913495 21.109375 16.34765625 C24.25146295 19.56744653 27.54825134 21.63410143 31.5078125 23.71875 C33.63671875 24.9375 33.63671875 24.9375 35.15625 26.4765625 C36.9366499 28.23347428 38.56753376 28.89617866 40.88671875 29.8125 C45.35414696 31.73232618 48.92647205 33.76833095 52.63671875 36.9375 C53.57421875 39.75 53.57421875 39.75 53.63671875 41.9375 C52.31671875 41.9375 50.99671875 41.9375 49.63671875 41.9375 C48.97671875 42.5975 48.31671875 43.2575 47.63671875 43.9375 C44.37890625 43.9140625 44.37890625 43.9140625 40.51171875 43.5625 C39.23039062 43.45164062 37.9490625 43.34078125 36.62890625 43.2265625 C35.64148438 43.13117188 34.6540625 43.03578125 33.63671875 42.9375 C33.30671875 41.9475 32.97671875 40.9575 32.63671875 39.9375 C31.70859375 39.834375 30.78046875 39.73125 29.82421875 39.625 C25.16219401 38.61946525 24.27822545 36.91010694 21.69921875 33 C19.8661482 30.27816796 18.03046701 28.16026624 15.63671875 25.9375 C15.96671875 25.2775 16.29671875 24.6175 16.63671875 23.9375 C17.95671875 24.9275 19.27671875 25.9175 20.63671875 26.9375 C19.68942338 24.77938612 19.68942338 24.77938612 17.63671875 22.9375 C18.29671875 22.2775 18.95671875 21.6175 19.63671875 20.9375 C17.32439453 18.37500025 17.32439453 18.37500025 14.63671875 15.9375 C13.64671875 15.9375 12.65671875 15.9375 11.63671875 15.9375 C10.97671875 15.2775 10.31671875 14.6175 9.63671875 13.9375 C10.29671875 13.9375 10.95671875 13.9375 11.63671875 13.9375 C11.63671875 13.2775 11.63671875 12.6175 11.63671875 11.9375 C10.64671875 12.2675 9.65671875 12.5975 8.63671875 12.9375 C5.44921875 11.5 5.44921875 11.5 2.63671875 9.9375 C2.63671875 9.2775 2.63671875 8.6175 2.63671875 7.9375 C0.98671875 8.5975 -0.66328125 9.2575 -2.36328125 9.9375 C-2.69328125 8.9475 -3.02328125 7.9575 -3.36328125 6.9375 C-4.68328125 7.2675 -6.00328125 7.5975 -7.36328125 7.9375 C-7.36328125 7.2775 -7.36328125 6.6175 -7.36328125 5.9375 C-10.00328125 5.6075 -12.64328125 5.2775 -15.36328125 4.9375 C-12.11679698 -2.55438678 -7.08809995 -1.16556628 0 0 Z M21.63671875 22.9375 C22.63671875 24.9375 22.63671875 24.9375 22.63671875 24.9375 Z M32.63671875 31.9375 C33.63671875 33.9375 33.63671875 33.9375 33.63671875 33.9375 Z " fill="#F4F6F3" transform="translate(363.36328125,260.0625)"/>
<path d="M0 0 C2.64 1.65 5.28 3.3 8 5 C8.33 4.34 8.66 3.68 9 3 C10.94045688 3.4241929 12.87731761 3.86485995 14.8125 4.3125 C16.43091797 4.67794922 16.43091797 4.67794922 18.08203125 5.05078125 C21.01842856 6.00599483 22.03901559 6.72717709 24 9 C24.86625 9.45375 25.7325 9.9075 26.625 10.375 C29 12 29 12 29.8125 14.6875 C29.874375 15.450625 29.93625 16.21375 30 17 C28.68 17 27.36 17 26 17 C25.34 17.66 24.68 18.32 24 19 C20.7421875 18.9765625 20.7421875 18.9765625 16.875 18.625 C15.59367187 18.51414062 14.31234375 18.40328125 12.9921875 18.2890625 C12.00476563 18.19367188 11.01734375 18.09828125 10 18 C9.67 17.01 9.34 16.02 9 15 C8.071875 14.896875 7.14375 14.79375 6.1875 14.6875 C1.50616677 13.67780068 0.68417712 12.04907159 -1.875 8.125 C-3 5 -3 5 -1.6875 2.125 C-0.8521875 1.073125 -0.8521875 1.073125 0 0 Z M9 7 C10 9 10 9 10 9 Z " fill="#FAFAF9" transform="translate(387,285)"/>
<path d="M0 0 C0.33 0 0.66 0 1 0 C0.91878906 0.79921875 0.83757812 1.5984375 0.75390625 2.421875 C0.27678474 10.71794689 1.74465872 15.55315854 6.37109375 22.44140625 C9.25140274 26.96563259 9.1021483 30.68828851 9 36 C1.71317282 35.40271908 -2.52643896 33.56528076 -7.4375 28.08984375 C-10.03053908 24.62165398 -10.77448379 21.57861345 -11.375 17.375 C-10.87199602 14.18930812 -9.4140498 13.03685452 -7 11 C-6.34 11.33 -5.68 11.66 -5 12 C-5 11.01 -5 10.02 -5 9 C-5.99 9.495 -5.99 9.495 -7 10 C-6.34 8.68 -5.68 7.36 -5 6 C-3.68 6.33 -2.36 6.66 -1 7 C-0.67 4.69 -0.34 2.38 0 0 Z M-4 18 C-3 21 -3 21 -3 21 Z M-3 22 C-2 24 -2 24 -2 24 Z " fill="#F8F9F8" transform="translate(67,346)"/>
<path d="M0 0 C0.61875 0.78375 1.2375 1.5675 1.875 2.375 C4.32184784 5.7609694 4.32184784 5.7609694 7.91015625 7.34375 C8.62042969 7.3953125 9.33070313 7.446875 10.0625 7.5 C12.0115625 7.7475 12.0115625 7.7475 14 8 C14.33 8.66 14.66 9.32 15 10 C16.79565677 10.63731831 16.79565677 10.63731831 18.96484375 11.03515625 C19.76470703 11.20466797 20.56457031 11.37417969 21.38867188 11.54882812 C22.6503418 11.8030957 22.6503418 11.8030957 23.9375 12.0625 C25.59291439 12.40530714 27.24788629 12.75026011 28.90234375 13.09765625 C29.63960693 13.24726807 30.37687012 13.39687988 31.13647461 13.55102539 C33 14 33 14 35 15 C34.67 15.99 34.34 16.98 34 18 C33.01 18.33 32.02 18.66 31 19 C29 18 29 18 28 17 C27.505 18.485 27.505 18.485 27 20 C25.046875 19.44661458 23.09375 18.89322917 21.140625 18.33984375 C18.77011123 17.96350306 17.29057992 18.38885788 15 19 C14.34 18.67 13.68 18.34 13 18 C13 17.34 13 16.68 13 16 C12.1646875 16.309375 12.1646875 16.309375 11.3125 16.625 C8.340462 17.10695211 6.68020059 16.26565028 4 15 C4 14.01 4 13.02 4 12 C3.34 12 2.68 12 2 12 C2 12.66 2 13.32 2 14 C1.01 14.33 0.02 14.66 -1 15 C-1.66 14.01 -2.32 13.02 -3 12 C-3.66 12 -4.32 12 -5 12 C-4.67 11.01 -4.34 10.02 -4 9 C-2.35 9 -0.7 9 1 9 C0.649375 8.2575 0.29875 7.515 -0.0625 6.75 C-1.04509293 3.8677274 -1.0326802 2.78823655 0 0 Z " fill="#F7F8F6" transform="translate(314,244)"/>
<path d="M0 0 C2.12687781 0.98747898 3.93204095 1.9441765 5.75 3.4375 C8.95672314 5.66439107 12.31800435 6.71130152 16 8 C15.25 10.9375 15.25 10.9375 14 14 C10.57972276 15.90015402 6.67582513 14.74762545 3 14 C0.59139988 13.11434742 -1.67269594 12.09240803 -4 11 C-4.33 11.66 -4.66 12.32 -5 13 C-7.125 6.25 -7.125 6.25 -6 4 C-4.33333333 3.33333333 -2.66666667 2.66666667 -1 2 C-0.67 1.34 -0.34 0.68 0 0 Z M0 8 C1 10 1 10 1 10 Z " fill="#F7F8F7" transform="translate(417,180)"/>
<path d="M0 0 C2.94844176 1.47422088 3.04360867 3.79029926 4.07421875 6.75 C5.0341114 9.08290366 6.21193876 10.97752204 7.625 13.0625 C10.0680835 16.76747648 10.72464843 19.59437484 11 24 C10.01 24.33 9.02 24.66 8 25 C8 24.34 8 23.68 8 23 C6.35 22.67 4.7 22.34 3 22 C3 21.34 3 20.68 3 20 C2.01 20 1.02 20 0 20 C0.33 18.35 0.66 16.7 1 15 C0.34 14.67 -0.32 14.34 -1 14 C-1.33 14.66 -1.66 15.32 -2 16 C-2.66 14.68 -3.32 13.36 -4 12 C-3.34 11.34 -2.68 10.68 -2 10 C-2.33 9.01 -2.66 8.02 -3 7 C-2.07796291 4.63477442 -1.08301035 2.29598193 0 0 Z " fill="#EBECE9" transform="translate(65,354)"/>
<path d="M0 0 C2.625 -0.1875 2.625 -0.1875 5 0 C5.66 1.32 6.32 2.64 7 4 C7.804375 3.2575 7.804375 3.2575 8.625 2.5 C11.59358445 0.62510456 13.55312427 0.76498575 17 1 C17 1.99 17 2.98 17 4 C16.34 4 15.68 4 15 4 C15.515625 5.093125 16.03125 6.18625 16.5625 7.3125 C18 11 18 11 17 14 C16.38125 13.01 15.7625 12.02 15.125 11 C14.42375 10.01 13.7225 9.02 13 8 C12.34 8 11.68 8 11 8 C11 8.66 11 9.32 11 10 C11.66 10 12.32 10 13 10 C13.33 10.99 13.66 11.98 14 13 C8.50581395 13.36627907 8.50581395 13.36627907 6.1875 11.6875 C5 10 5 10 4 7 C3.67 7.99 3.34 8.98 3 10 C2.9175 9.21625 2.835 8.4325 2.75 7.625 C2.27193661 4.85250896 2.27193661 4.85250896 -0.0625 3.6875 C-0.701875 3.460625 -1.34125 3.23375 -2 3 C-1.34 2.01 -0.68 1.02 0 0 Z M3 5 C4 7 4 7 4 7 Z " fill="#EFF0F0" transform="translate(313,193)"/>
<path d="M0 0 C1.98 0.495 1.98 0.495 4 1 C4 1.66 4 2.32 4 3 C4.99 3.33 5.98 3.66 7 4 C7 4.99 7 5.98 7 7 C7.66 7 8.32 7 9 7 C8.67 7.99 8.34 8.98 8 10 C9.32 11.32 10.64 12.64 12 14 C9.36 13.67 6.72 13.34 4 13 C3.67 13.66 3.34 14.32 3 15 C1.68 15 0.36 15 -1 15 C-1.02715383 13.25008666 -1.04646551 11.50005055 -1.0625 9.75 C-1.07410156 8.77546875 -1.08570313 7.8009375 -1.09765625 6.796875 C-1.01195577 4.34241322 -0.70706066 2.33831086 0 0 Z M3 4 C2.67 4.99 2.34 5.98 2 7 C2.66 7 3.32 7 4 7 C3.67 6.01 3.34 5.02 3 4 Z M4 7 C5 9 5 9 5 9 Z M2 10 C3 12 3 12 3 12 Z " fill="#E5E6E6" transform="translate(158,222)"/>
<path d="M0 0 C0 1.32 0 2.64 0 4 C1.65 3.67 3.3 3.34 5 3 C5.28875 3.763125 5.5775 4.52625 5.875 5.3125 C6.96269013 8.15029308 6.96269013 8.15029308 9 11 C3.72250715 10.46148032 -0.25645564 9.22656164 -5 7 C-5.33 7.66 -5.66 8.32 -6 9 C-8.125 2.25 -8.125 2.25 -7 0 C-3.86650268 -1.04449911 -3.01031744 -0.93423645 0 0 Z " fill="#ECEDED" transform="translate(418,184)"/>
<path d="M0 0 C0.70125 0.06703125 1.4025 0.1340625 2.125 0.203125 C4 0.75 4 0.75 6 3.75 C5.67 4.74 5.34 5.73 5 6.75 C4.64763503 8.74673484 4.31165441 10.74650739 4 12.75 C2.68 12.42 1.36 12.09 0 11.75 C-0.061875 10.821875 -0.12375 9.89375 -0.1875 8.9375 C-0.67500908 5.55803511 -0.67500908 5.55803511 -3.5625 4 C-4.366875 3.5875 -5.17125 3.175 -6 2.75 C-6 2.09 -6 1.43 -6 0.75 C-3.64710301 -0.4264485 -2.58181049 -0.28475851 0 0 Z M1 6.75 C2 8.75 2 8.75 2 8.75 Z " fill="#F5F5F5" transform="translate(389,161.25)"/>
<path d="M0 0 C0.763125 0.350625 1.52625 0.70125 2.3125 1.0625 C5.04759379 2.32360884 5.04759379 2.32360884 8 1 C8.99 1.33 9.98 1.66 11 2 C10.65249554 7.6759062 9.2252389 11.98235954 5 16 C4.01 16 3.02 16 2 16 C3 13 3 13 4.25 11.125 C5.31477521 8.88175956 5.31477521 8.88175956 3.8125 6.3125 C2.13943946 3.74003999 2.13943946 3.74003999 -1 3 C-0.67 2.01 -0.34 1.02 0 0 Z " fill="#F3F4F2" transform="translate(317,206)"/>
<path d="M0 0 C5.19209404 -0.21192221 9.126739 0.4087311 14 2 C13.67 2.99 13.34 3.98 13 5 C12.01 5.33 11.02 5.66 10 6 C8 5 8 5 7 4 C6.67 4.99 6.34 5.98 6 7 C2.37 6.01 -1.26 5.02 -5 4 C-5 3.34 -5 2.68 -5 2 C-3.35 2 -1.7 2 0 2 C0 1.34 0 0.68 0 0 Z " fill="#E7E9E7" transform="translate(335,257)"/>
<path d="M0 0 C2.33524782 2.25740623 4.18705073 4.2805761 6 7 C8.55183404 8.20450304 8.55183404 8.20450304 11 9 C6.88825414 10.37058195 4.26339405 9.75640862 0 9 C-0.33 8.34 -0.66 7.68 -1 7 C-1.99 7 -2.98 7 -4 7 C-4.33 5.68 -4.66 4.36 -5 3 C-3.35 2.01 -1.7 1.02 0 0 Z " fill="#EFF3F2" transform="translate(300,184)"/>
<path d="M0 0 C0.928125 1.175625 0.928125 1.175625 1.875 2.375 C4.3491118 5.75874782 4.3491118 5.75874782 7.9453125 7.4140625 C9.96354167 7.609375 11.98177083 7.8046875 14 8 C10.50407222 10.33061852 8.15869464 10.70295038 4 11 C0.64306263 8.76204175 0.08029437 7.7810303 -1 4 C-0.625 1.6875 -0.625 1.6875 0 0 Z " fill="#F1F2F2" transform="translate(314,244)"/>
<path d="M0 0 C4.42945931 0.89958114 7.73054818 2.89402077 11 6 C11.9375 8.8125 11.9375 8.8125 12 11 C11.34 11 10.68 11 10 11 C9.34 10.01 8.68 9.02 8 8 C5.94996045 6.80767387 5.94996045 6.80767387 4 6 C4.33 5.67 4.66 5.34 5 5 C4.01 5 3.02 5 2 5 C0.32900023 4.68911632 -1.33871537 4.35919668 -3 4 C-2.01 2.68 -1.02 1.36 0 0 Z " fill="#F0F1EF" transform="translate(405,291)"/>
<path d="M0 0 C0.51949219 0.39832031 1.03898437 0.79664063 1.57421875 1.20703125 C4.6356591 3.5328205 7.5991255 5.76971039 10.9375 7.6875 C13 9 13 9 14 12 C10.09841646 11.42198762 8.02142223 9.41713779 5 7 C2.81785432 6.22166466 2.81785432 6.22166466 1 6 C0.67 4.02 0.34 2.04 0 0 Z " fill="#E9EBE8" transform="translate(382,275)"/>
<path d="M0 0 C0.99 0.33 1.98 0.66 3 1 C4.1875 3.5625 4.1875 3.5625 5 6 C4.01 6.495 4.01 6.495 3 7 C2.67 7.66 2.34 8.32 2 9 C0.68 9 -0.64 9 -2 9 C-1.125 1.125 -1.125 1.125 0 0 Z M1 4 C2 6 2 6 2 6 Z " fill="#D6D7D8" transform="translate(159,228)"/>
<path d="M0 0 C0.598125 0.20625 1.19625 0.4125 1.8125 0.625 C1.4825 1.285 1.1525 1.945 0.8125 2.625 C1.09192455 4.30154729 1.42078247 5.97108154 1.8125 7.625 C0.8225 7.625 -0.1675 7.625 -1.1875 7.625 C-1.1875 6.305 -1.1875 4.985 -1.1875 3.625 C-1.5175 5.275 -1.8475 6.925 -2.1875 8.625 C-4.54703094 6.26546906 -4.67891413 4.84604383 -5.1875 1.625 C-2.1875 -0.375 -2.1875 -0.375 0 0 Z " fill="#EAEAEA" transform="translate(403.1875,170.375)"/>
<path d="M0 0 C3.2910841 3.60957611 4.54663921 6.12637153 5 11 C3.68 11.33 2.36 11.66 1 12 C0.40267181 9.23735711 0 6.83967231 0 4 C-0.66 3.34 -1.32 2.68 -2 2 C-1.34 2 -0.68 2 0 2 C0 1.34 0 0.68 0 0 Z " fill="#D6D7D3" transform="translate(70,364)"/>
<path d="M0 0 C-2 3 -2 3 -3.875 3.625 C-4.57625 3.74875 -5.2775 3.8725 -6 4 C-7.11375 4.2784375 -7.11375 4.2784375 -8.25 4.5625 C-8.8275 4.706875 -9.405 4.85125 -10 5 C-10 3.35 -10 1.7 -10 0 C-6.33694766 -0.74926071 -3.57644848 -1.2380014 0 0 Z " fill="#EAEAEA" transform="translate(245,339)"/>
<path d="M0 0 C-0.33 0.99 -0.66 1.98 -1 3 C-3.06640625 3.73046875 -3.06640625 3.73046875 -5.5625 4.1875 C-6.38878906 4.34605469 -7.21507812 4.50460937 -8.06640625 4.66796875 C-9.02353516 4.83232422 -9.02353516 4.83232422 -10 5 C-10 4.01 -10 3.02 -10 2 C-6.49223216 0.39644899 -3.85645121 -0.22036864 0 0 Z " fill="#DCDCDC" transform="translate(233,338)"/>
<path d="M0 0 C4.455 0.99 4.455 0.99 9 2 C8.67 2.99 8.34 3.98 8 5 C7.01 5.33 6.02 5.66 5 6 C4.34 5.67 3.68 5.34 3 5 C3 4.34 3 3.68 3 3 C1.68 2.67 0.36 2.34 -1 2 C-0.67 1.34 -0.34 0.68 0 0 Z " fill="#EDEFED" transform="translate(340,257)"/>
<path d="M0 0 C-0.33 0.66 -0.66 1.32 -1 2 C-8.42857143 2.28571429 -8.42857143 2.28571429 -12 0 C-7.44729118 -2.48329572 -4.775353 -1.68541871 0 0 Z " fill="#FBFCFB" transform="translate(332,255)"/>
<path d="M0 0 C2.475 0.495 2.475 0.495 5 1 C4.67 1.99 4.34 2.98 4 4 C5.32 5.32 6.64 6.64 8 8 C5.03 7.505 5.03 7.505 2 7 C1.34 4.69 0.68 2.38 0 0 Z " fill="#DFE0E1" transform="translate(162,228)"/>
<path d="M0 0 C1.32 0 2.64 0 4 0 C4.28875 0.763125 4.5775 1.52625 4.875 2.3125 C5.96269013 5.15029308 5.96269013 5.15029308 8 8 C6.0625 7.625 6.0625 7.625 4 7 C3.67 6.34 3.34 5.68 3 5 C2.01 4.67 1.02 4.34 0 4 C-0.33 3.01 -0.66 2.02 -1 1 C-0.67 0.67 -0.34 0.34 0 0 Z " fill="#E0E2E1" transform="translate(419,187)"/>
<path d="M0 0 C3.63 0.33 7.26 0.66 11 1 C10.67 1.99 10.34 2.98 10 4 C6.28400809 4.20086443 5.22791555 4.1519437 2 2 C1.34 1.34 0.68 0.68 0 0 Z " fill="#EDEFEC" transform="translate(319,256)"/>
<path d="M0 0 C0.99 0.33 1.98 0.66 3 1 C3.33 3.97 3.66 6.94 4 10 C3.34 9.34 2.68 8.68 2 8 C2 7.01 2 6.02 2 5 C0.68 4.34 -0.64 3.68 -2 3 C-1.34 2.01 -0.68 1.02 0 0 Z " fill="#ECECEC" transform="translate(313,193)"/>
<path d="M0 0 C0.66 0 1.32 0 2 0 C2.33 1.32 2.66 2.64 3 4 C0 5 0 5 -3 4 C-3 4.66 -3 5.32 -3 6 C-4.32 5.67 -5.64 5.34 -7 5 C-4.64046906 2.64046906 -3.22104383 2.50858587 0 2 C0 1.34 0 0.68 0 0 Z " fill="#EBEBEC" transform="translate(161,234)"/>
<path d="M0 0 C0.66 0.33 1.32 0.66 2 1 C1.34 2.98 0.68 4.96 0 7 C-0.66 7 -1.32 7 -2 7 C-2.6875 5.1875 -2.6875 5.1875 -3 3 C-1.5625 1.25 -1.5625 1.25 0 0 Z " fill="#F3F4F3" transform="translate(321,185)"/>
<path d="M0 0 C0.99 0 1.98 0 3 0 C3.33 1.65 3.66 3.3 4 5 C2.02 5 0.04 5 -2 5 C-1.34 3.35 -0.68 1.7 0 0 Z " fill="#E0E3DE" transform="translate(66,361)"/>
<path d="M0 0 C2.12038635 2.61514317 4.13091744 5.19637616 6 8 C3.625 7.6875 3.625 7.6875 1 7 C-1 4 -1 4 -0.625 1.8125 C-0.41875 1.214375 -0.2125 0.61625 0 0 Z " fill="#EAEBEB" transform="translate(314,244)"/>
<path d="M0 0 C1.65 0.33 3.3 0.66 5 1 C4.34 2.32 3.68 3.64 3 5 C1.68 4.34 0.36 3.68 -1 3 C-0.67 2.01 -0.34 1.02 0 0 Z " fill="#E4E5E5" transform="translate(427,190)"/>
<path d="M0 0 C-0.33 1.65 -0.66 3.3 -1 5 C-3.475 4.01 -3.475 4.01 -6 3 C-6 2.34 -6 1.68 -6 1 C-4 0 -4 0 0 0 Z " fill="#ECEDED" transform="translate(389,161)"/>
<path d="M0 0 C1.65 0.33 3.3 0.66 5 1 C4.67 1.66 4.34 2.32 4 3 C2.35 3 0.7 3 -1 3 C-0.67 2.01 -0.34 1.02 0 0 Z M2 3 C3.98 3.99 3.98 3.99 6 5 C5.01 5.33 4.02 5.66 3 6 C2.67 5.01 2.34 4.02 2 3 Z " fill="#F1F2F2" transform="translate(310,253)"/>
<path d="M0 0 C0.99 0.33 1.98 0.66 3 1 C2.6875 2.875 2.6875 2.875 2 5 C1.01 5.66 0.02 6.32 -1 7 C-1.33 5.68 -1.66 4.36 -2 3 C-1.34 2.67 -0.68 2.34 0 2 C0 1.34 0 0.68 0 0 Z " fill="#DDDDDD" transform="translate(415,183)"/>
<path d="M0 0 C2.62113708 0 4.50935112 0.31292445 7 1 C6.38125 1.28875 5.7625 1.5775 5.125 1.875 C2.86674235 2.93720042 2.86674235 2.93720042 1 5 C0.34 3.68 -0.32 2.36 -1 1 C-0.67 0.67 -0.34 0.34 0 0 Z " fill="#F1F3EF" transform="translate(62,365)"/>
</svg>
